<svg width="200" height="200" viewBox="0 0 200 200" fill="none" xmlns="http://www.w3.org/2000/svg">
<circle cx="100" cy="100" r="100" fill="black"/>
<path d="M59.2747 71.3707C59.1298 70.8338 58.9167 70.3608 58.6355 69.9517C58.3542 69.5341 58.0091 69.1804 57.6 68.8906C57.1909 68.6009 56.7221 68.3835 56.1937 68.2386C55.6653 68.0852 55.0858 68.0085 54.4551 68.0085C53.1852 68.0085 52.0858 68.3153 51.1568 68.929C50.2363 69.5426 49.5247 70.4375 49.0218 71.6136C48.519 72.7812 48.2676 74.2003 48.2676 75.8707C48.2676 77.5497 48.5105 78.9815 48.9963 80.1662C49.4821 81.3509 50.1852 82.2543 51.1056 82.8764C52.0261 83.4986 53.1426 83.8097 54.4551 83.8097C55.6142 83.8097 56.5943 83.6222 57.3954 83.2472C58.2051 82.8636 58.8187 82.3224 59.2363 81.6236C59.6539 80.9247 59.8627 80.1023 59.8627 79.1562L61.0389 79.2969H54.6724V74.6818H65.9608V78.1463C65.9608 80.4901 65.4622 82.4972 64.465 84.1676C63.4764 85.8381 62.1127 87.1207 60.3741 88.0156C58.644 88.9105 56.6539 89.358 54.4039 89.358C51.9068 89.358 49.7122 88.8168 47.8201 87.7344C45.9281 86.652 44.4537 85.1094 43.3968 83.1065C42.34 81.0952 41.8116 78.7088 41.8116 75.9474C41.8116 73.7997 42.1312 71.8949 42.7704 70.233C43.4096 68.5625 44.3002 67.1477 45.4423 65.9886C46.5929 64.8295 47.9224 63.9517 49.4309 63.3551C50.948 62.7585 52.5801 62.4602 54.3272 62.4602C55.8443 62.4602 57.2548 62.6776 58.5588 63.1122C59.8713 63.5469 61.0304 64.1605 62.036 64.9531C63.0502 65.7457 63.8727 66.6875 64.5034 67.7784C65.1341 68.8693 65.5261 70.0668 65.6795 71.3707H59.2747ZM78.8695 89.3707C76.8155 89.3707 75.0428 88.9659 73.5513 88.1562C72.0684 87.3381 70.9263 86.1747 70.1252 84.6662C69.3326 83.1491 68.9363 81.3466 68.9363 79.2585C68.9363 77.2301 69.3368 75.4574 70.138 73.9403C70.9391 72.4148 72.0684 71.2301 73.5257 70.3864C74.9831 69.5341 76.7005 69.108 78.6777 69.108C80.0755 69.108 81.3539 69.3253 82.513 69.7599C83.6721 70.1946 84.6735 70.8381 85.5172 71.6903C86.361 72.5426 87.0172 73.5952 87.486 74.848C87.9547 76.0923 88.1891 77.5199 88.1891 79.1307V80.6903H71.1223V77.0597H82.3723C82.3638 76.3949 82.2061 75.8026 81.8993 75.2827C81.5925 74.7628 81.1706 74.358 80.6337 74.0682C80.1053 73.7699 79.4959 73.6207 78.8056 73.6207C78.1067 73.6207 77.4803 73.7784 76.9263 74.0938C76.3723 74.4006 75.9334 74.8224 75.6096 75.3594C75.2857 75.8878 75.1152 76.4886 75.0982 77.1619V80.8565C75.0982 81.6577 75.2559 82.3608 75.5712 82.9659C75.8865 83.5625 76.334 84.027 76.9135 84.3594C77.4931 84.6918 78.1834 84.858 78.9846 84.858C79.5385 84.858 80.0414 84.7812 80.4931 84.6278C80.9448 84.4744 81.3326 84.2486 81.6564 83.9503C81.9803 83.652 82.2232 83.2855 82.3851 82.8509L88.1252 83.017C87.8865 84.304 87.3624 85.4247 86.5527 86.3793C85.7516 87.3253 84.699 88.0625 83.3951 88.5909C82.0911 89.1108 80.5826 89.3707 78.8695 89.3707ZM91.3819 89V69.3636H97.3265V72.9688H97.5439C97.9529 71.7756 98.6433 70.8338 99.6149 70.1435C100.586 69.4531 101.746 69.108 103.092 69.108C104.456 69.108 105.623 69.4574 106.595 70.1562C107.567 70.8551 108.184 71.7926 108.449 72.9688H108.653C109.02 71.8011 109.736 70.8679 110.801 70.169C111.866 69.4616 113.123 69.108 114.572 69.108C116.43 69.108 117.939 69.7045 119.098 70.8977C120.257 72.0824 120.836 73.7102 120.836 75.7812V89H114.585V77.2131C114.585 76.233 114.334 75.4872 113.831 74.9759C113.328 74.456 112.676 74.196 111.875 74.196C111.014 74.196 110.336 74.4773 109.842 75.0398C109.356 75.5937 109.113 76.3395 109.113 77.277V89H103.105V77.1491C103.105 76.2372 102.858 75.517 102.363 74.9886C101.869 74.4602 101.217 74.196 100.407 74.196C99.862 74.196 99.3805 74.3281 98.9629 74.5923C98.5453 74.848 98.2172 75.2145 97.9785 75.6918C97.7484 76.169 97.6333 76.7315 97.6333 77.3793V89H91.3819ZM124.71 89V62.8182H131.038V73.3267H141.355V62.8182H147.67V89H141.355V78.4787H131.038V89H124.71ZM151.64 89V69.3636H157.891V89H151.64ZM154.772 67.0753C153.894 67.0753 153.14 66.7855 152.509 66.206C151.878 65.6179 151.563 64.9105 151.563 64.0838C151.563 63.2656 151.878 62.5668 152.509 61.9872C153.14 61.3991 153.894 61.1051 154.772 61.1051C155.658 61.1051 156.412 61.3991 157.035 61.9872C157.665 62.5668 157.981 63.2656 157.981 64.0838C157.981 64.9105 157.665 65.6179 157.035 66.206C156.412 66.7855 155.658 67.0753 154.772 67.0753ZM49.6722 133H42.8711L51.7049 106.818H60.1296L68.9634 133H62.1623L56.0131 113.415H55.8086L49.6722 133ZM48.7646 122.696H62.9805V127.503H48.7646V122.696ZM77.7237 133.281C76.2749 133.281 74.9581 132.906 73.7734 132.156C72.5888 131.406 71.6428 130.281 70.9354 128.781C70.228 127.281 69.8743 125.419 69.8743 123.195C69.8743 120.885 70.2408 118.984 70.9737 117.493C71.7067 116.001 72.6655 114.898 73.8501 114.182C75.0433 113.466 76.326 113.108 77.6982 113.108C78.7294 113.108 79.6115 113.287 80.3445 113.645C81.0774 113.994 81.6825 114.446 82.1598 115C82.6371 115.554 82.9993 116.129 83.2464 116.726H83.3743V106.818H89.6257V133H83.4382V129.817H83.2464C82.9822 130.422 82.6072 130.989 82.1214 131.517C81.6357 132.045 81.0263 132.472 80.2933 132.795C79.5689 133.119 78.7124 133.281 77.7237 133.281ZM79.897 128.411C80.6555 128.411 81.3033 128.197 81.8402 127.771C82.3771 127.337 82.7905 126.727 83.0803 125.943C83.37 125.159 83.5149 124.239 83.5149 123.182C83.5149 122.108 83.37 121.183 83.0803 120.408C82.799 119.632 82.3857 119.036 81.8402 118.618C81.3033 118.2 80.6555 117.991 79.897 117.991C79.1214 117.991 78.4652 118.205 77.9283 118.631C77.3913 119.057 76.9822 119.658 76.701 120.433C76.4283 121.209 76.2919 122.125 76.2919 123.182C76.2919 124.239 76.4325 125.159 76.7138 125.943C76.995 126.727 77.3999 127.337 77.9283 127.771C78.4652 128.197 79.1214 128.411 79.897 128.411ZM93.5792 133V113.364H99.5238V116.969H99.7411C100.15 115.776 100.841 114.834 101.812 114.143C102.784 113.453 103.943 113.108 105.289 113.108C106.653 113.108 107.821 113.457 108.792 114.156C109.764 114.855 110.382 115.793 110.646 116.969H110.85C111.217 115.801 111.933 114.868 112.998 114.169C114.064 113.462 115.321 113.108 116.77 113.108C118.627 113.108 120.136 113.705 121.295 114.898C122.454 116.082 123.034 117.71 123.034 119.781V133H116.782V121.213C116.782 120.233 116.531 119.487 116.028 118.976C115.525 118.456 114.873 118.196 114.072 118.196C113.211 118.196 112.534 118.477 112.039 119.04C111.554 119.594 111.311 120.339 111.311 121.277V133H105.302V121.149C105.302 120.237 105.055 119.517 104.561 118.989C104.066 118.46 103.414 118.196 102.605 118.196C102.059 118.196 101.578 118.328 101.16 118.592C100.743 118.848 100.414 119.214 100.176 119.692C99.9457 120.169 99.8306 120.732 99.8306 121.379V133H93.5792ZM126.907 133V113.364H133.159V133H126.907ZM130.039 111.075C129.162 111.075 128.407 110.786 127.777 110.206C127.146 109.618 126.831 108.911 126.831 108.084C126.831 107.266 127.146 106.567 127.777 105.987C128.407 105.399 129.162 105.105 130.039 105.105C130.926 105.105 131.68 105.399 132.302 105.987C132.933 106.567 133.248 107.266 133.248 108.084C133.248 108.911 132.933 109.618 132.302 110.206C131.68 110.786 130.926 111.075 130.039 111.075ZM143.389 121.801V133H137.138V113.364H143.082V116.969H143.3C143.734 115.767 144.476 114.825 145.524 114.143C146.572 113.453 147.821 113.108 149.27 113.108C150.651 113.108 151.848 113.419 152.862 114.041C153.885 114.655 154.678 115.516 155.24 116.624C155.811 117.723 156.092 119.01 156.084 120.484V133H149.832V121.712C149.841 120.621 149.564 119.768 149.001 119.155C148.447 118.541 147.676 118.234 146.688 118.234C146.031 118.234 145.452 118.379 144.949 118.669C144.455 118.95 144.071 119.355 143.798 119.884C143.534 120.412 143.398 121.051 143.389 121.801Z" fill="white"/>
</svg>
